<?xml version="1.0" standalone="no"?>
<!DOCTYPE svg PUBLIC "-//W3C//DTD SVG 20010904//EN"
 "http://www.w3.org/TR/2001/REC-SVG-20010904/DTD/svg10.dtd">
<svg version="1.0" xmlns="http://www.w3.org/2000/svg"
 width="339.000000pt" height="735.000000pt" viewBox="0 0 339.000000 735.000000"
 preserveAspectRatio="xMidYMid meet">

<g transform="translate(0.000000,735.000000) scale(0.100000,-0.100000)"
fill="#000000" stroke="none">
<path d="M1445 4760 c-10 -11 -24 -20 -32 -20 -8 0 -45 -18 -81 -39 -37 -21
-120 -63 -184 -92 -116 -53 -158 -82 -77 -54 51 18 50 18 43 1 -3 -8 -13 -15
-22 -15 -59 -2 -157 -12 -161 -16 -11 -12 9 -13 89 -4 103 10 157 3 171 -22
11 -22 0 -25 -20 -6 -11 10 -12 8 -3 -9 6 -11 18 -27 27 -34 12 -10 15 -24 11
-49 -4 -26 -3 -31 4 -16 6 14 9 15 10 5 0 -13 2 -13 9 0 12 19 -4 104 -24 133
-8 12 -15 25 -15 29 0 4 23 19 50 33 28 14 50 20 50 15 0 -6 5 -8 10 -5 13 8
13 5 -5 -45 -18 -52 -19 -70 -2 -70 20 0 51 48 73 110 27 79 26 105 -1 82 -6
-4 17 19 50 50 33 31 57 57 54 58 -3 0 -14 -9 -24 -20z"/>
<path d="M1986 4713 c39 -37 59 -59 46 -48 l-25 20 7 -20 c5 -16 2 -15 -14 5
-15 19 -13 8 11 -45 41 -93 55 -118 73 -130 24 -15 30 2 17 42 -7 21 -14 45
-17 53 -3 8 4 -1 15 -20 22 -38 28 -110 10 -110 -8 0 -8 -5 1 -15 20 -24 4
-45 -34 -45 -28 0 -34 -3 -29 -16 6 -15 24 -14 67 2 13 5 16 -1 16 -26 0 -22
-4 -29 -12 -24 -9 6 -9 3 0 -9 8 -9 12 -22 9 -29 -2 -7 6 -33 18 -58 22 -45
66 -199 64 -229 0 -9 -15 34 -32 95 -73 251 -195 370 -405 396 -75 10 -103 9
-171 -4 -45 -9 -101 -26 -124 -38 l-42 -20 29 24 c71 59 255 84 373 50 32 -9
81 -32 109 -50 59 -39 62 -40 80 -16 10 14 15 15 25 5 19 -19 28 -16 22 8 -4
13 -11 18 -21 14 -8 -3 -20 -1 -26 3 -6 5 -42 19 -81 30 -189 56 -367 56 -495
-1 -25 -11 -65 -25 -89 -32 -28 -7 -45 -18 -47 -28 -3 -20 7 -22 23 -6 14 14
33 3 33 -17 0 -12 5 -12 33 2 31 16 31 15 -12 -27 -56 -57 -94 -112 -126 -185
-27 -61 -65 -194 -65 -228 0 -10 -3 -17 -6 -13 -11 11 17 138 47 218 16 42 47
102 69 133 40 57 48 72 31 62 -5 -3 -23 -3 -40 0 -33 7 -41 30 -19 52 9 9 9
12 -1 12 -14 0 -11 60 5 110 6 22 6 23 -8 12 -13 -10 -17 -10 -21 0 -3 7 -6 3
-6 -9 -1 -16 -7 -23 -22 -23 -11 0 -17 -5 -14 -10 4 -6 11 -8 16 -5 5 4 9 -4
8 -17 0 -13 3 -53 7 -89 5 -54 4 -68 -10 -82 -10 -9 -13 -17 -7 -17 22 0 10
-33 -30 -80 -22 -26 -58 -81 -80 -122 -43 -78 -44 -69 -5 55 14 42 21 77 18
77 -8 0 -56 -76 -65 -102 -3 -9 -2 -18 3 -20 6 -2 4 -22 -4 -48 -7 -25 -19
-79 -26 -120 -14 -80 -25 -104 -46 -96 -7 3 -15 -2 -18 -10 -3 -8 0 -14 7 -14
21 0 40 -17 32 -30 -4 -7 -10 -8 -14 -4 -22 31 -45 30 -133 -5 -57 -24 -86
-40 -83 -49 3 -8 -7 -15 -26 -19 -22 -4 -27 -8 -17 -14 11 -7 10 -9 -1 -9 -46
0 188 -148 242 -153 19 -1 24 -17 5 -17 -9 -1 -7 -5 3 -13 9 -7 25 -51 36 -98
19 -77 91 -229 110 -229 3 0 -1 10 -9 23 -15 22 -33 65 -24 57 27 -28 94 -131
82 -127 -22 9 -20 -10 2 -22 13 -7 17 -22 16 -65 0 -47 2 -53 14 -43 11 8 13
27 9 75 -4 51 -11 72 -36 105 -48 64 -99 158 -121 222 -27 80 -24 94 4 20 33
-87 70 -155 109 -207 19 -25 39 -54 45 -64 17 -33 24 -138 12 -182 -10 -40
-18 -47 -47 -43 -7 1 -13 -3 -13 -9 0 -9 21 -15 43 -11 13 2 7 -27 -9 -43 -19
-20 -25 -20 -18 -1 4 10 0 15 -15 15 -12 0 -21 3 -21 8 0 4 -42 4 -92 0 -51
-4 -101 -8 -112 -8 -27 -1 -18 -7 59 -34 39 -13 129 -49 200 -79 72 -30 146
-58 165 -62 19 -4 43 -14 53 -23 10 -9 17 -11 17 -4 0 7 -3 12 -7 12 -5 0 -24
15 -44 33 -19 17 -27 26 -17 18 13 -10 18 -11 18 -2 0 20 -50 111 -61 111 -5
0 -7 -6 -3 -12 5 -9 4 -10 -3 -3 -26 25 -73 133 -73 168 0 32 4 39 27 48 15 5
38 8 50 4 21 -5 20 -1 -13 42 -36 47 -94 161 -94 185 0 7 15 -11 33 -39 30
-49 83 -100 92 -91 8 8 -46 79 -55 73 -15 -9 -89 157 -105 237 -13 66 -21 198
-8 143 2 -11 10 -33 17 -50 8 -16 16 -37 20 -45 3 -8 4 0 1 19 -3 18 -5 42 -5
53 0 12 -4 17 -12 12 -19 -12 -3 264 21 374 20 86 72 209 123 287 15 23 11 21
-17 -10 -34 -36 -36 -37 -22 -10 38 74 72 104 165 150 163 79 275 79 439 0 40
-19 77 -35 82 -35 13 0 68 -65 86 -103 l16 -32 -28 30 c-15 17 -25 26 -22 20
46 -76 95 -187 116 -264 23 -83 27 -119 29 -261 4 -200 3 -185 10 -177 3 3 10
30 15 59 7 47 8 44 4 -27 -2 -44 -11 -113 -20 -154 -16 -79 -76 -208 -94 -204
-10 3 -61 -67 -61 -83 0 -16 77 61 102 103 17 27 26 37 22 23 -13 -49 -52
-126 -88 -175 -31 -42 -34 -50 -19 -53 62 -10 63 -11 63 -55 0 -29 -10 -60
-34 -100 -18 -33 -36 -58 -39 -58 -4 1 -11 1 -15 1 -5 0 -21 -28 -37 -62 -16
-35 -38 -74 -50 -87 l-20 -24 23 12 c13 7 27 22 31 35 5 12 17 28 27 36 18 14
18 13 0 -8 -21 -24 -11 -29 19 -9 32 21 126 57 149 57 30 0 236 70 236 80 0
13 -29 19 -105 20 -83 1 -115 -6 -115 -29 -1 -12 -5 -10 -21 9 l-21 24 32 11
c32 11 31 25 -1 25 -30 0 -41 36 -37 124 3 80 4 84 44 132 49 58 109 164 140
248 28 74 32 61 5 -15 -27 -79 -63 -146 -116 -216 -25 -34 -50 -77 -56 -95
-12 -43 -12 -95 1 -103 6 -4 10 6 10 22 0 15 6 40 14 55 8 15 10 28 5 30 -5 2
10 26 32 53 22 28 47 63 55 78 9 16 18 26 21 23 3 -3 -4 -21 -16 -41 -11 -20
-17 -33 -11 -30 26 16 84 143 102 223 11 51 26 92 35 100 16 11 15 12 -1 12
-9 0 -14 5 -11 10 3 6 16 10 29 10 12 0 38 17 60 39 21 22 65 51 97 66 41 18
56 30 52 40 -3 8 -9 15 -13 15 -5 0 -15 6 -23 14 -7 8 -45 30 -83 49 -65 32
-71 33 -101 21 -18 -8 -33 -10 -33 -5 0 13 26 32 33 24 4 -3 7 2 7 11 0 11 -5
16 -13 13 -26 -10 -35 8 -52 98 -9 50 -22 111 -30 138 -8 26 -10 47 -5 47 14
0 -8 52 -36 85 -18 21 -24 24 -19 10 7 -20 28 -95 41 -145 4 -14 -17 13 -45
60 -29 47 -68 101 -86 120 -38 39 -44 60 -18 60 14 0 14 3 -5 20 -19 18 -21
29 -18 107 3 88 -4 117 -33 141 -9 7 9 1 39 -14 l56 -26 -24 -48 c-16 -32 -22
-60 -20 -86 l3 -39 16 35 c9 19 23 41 32 49 10 7 17 18 17 23 0 6 -7 5 -15 -2
-8 -7 -15 -8 -15 -2 0 34 90 46 214 28 25 -4 46 -3 46 2 0 9 -14 12 -72 12
-20 0 -40 4 -43 9 -3 6 6 8 20 5 44 -8 27 3 -47 32 -105 39 -221 95 -318 154
l-85 51 71 -68z m330 -158 c18 -14 18 -14 -7 -15 -15 0 -29 7 -33 15 -7 19 14
19 40 0z m-676 -75 c0 -5 -8 -10 -17 -10 -15 0 -16 2 -3 10 19 12 20 12 20 0z
m93 3 c-13 -2 -35 -2 -50 0 -16 2 -5 4 22 4 28 0 40 -2 28 -4z m57 -9 c0 -2
-7 -4 -15 -4 -8 0 -15 4 -15 10 0 5 7 7 15 4 8 -4 15 -8 15 -10z m427 -516
c-3 -7 -5 -2 -5 12 0 14 2 19 5 13 2 -7 2 -19 0 -25z m-1030 -30 c-3 -7 -5 -2
-5 12 0 14 2 19 5 13 2 -7 2 -19 0 -25z m1040 -45 c-3 -10 -5 -2 -5 17 0 19 2
27 5 18 2 -10 2 -26 0 -35z m50 -40 c-3 -10 -5 -2 -5 17 0 19 2 27 5 18 2 -10
2 -26 0 -35z m-1100 -185 c-3 -7 -5 -2 -5 12 0 14 2 19 5 13 2 -7 2 -19 0 -25z
m1100 -30 c-3 -8 -6 -5 -6 6 -1 11 2 17 5 13 3 -3 4 -12 1 -19z m-1239 -73
c-3 -3 -9 2 -12 12 -6 14 -5 15 5 6 7 -7 10 -15 7 -18z m9 -37 c-3 -8 -6 -5
-6 6 -1 11 2 17 5 13 3 -3 4 -12 1 -19z m53 -638 c0 -5 -10 -10 -22 -9 -22 0
-22 1 -3 9 11 5 21 9 23 9 1 1 2 -3 2 -9z m1223 -7 c-7 -2 -19 -2 -25 0 -7 3
-2 5 12 5 14 0 19 -2 13 -5z"/>
<path d="M2075 4420 c-3 -5 -2 -10 4 -10 5 0 13 5 16 10 3 6 2 10 -4 10 -5 0
-13 -4 -16 -10z"/>
<path d="M2190 4340 c0 -5 5 -10 11 -10 5 0 7 5 4 10 -3 6 -8 10 -11 10 -2 0
-4 -4 -4 -10z"/>
<path d="M1185 4320 c-3 -5 1 -10 9 -10 9 0 16 5 16 10 0 6 -4 10 -9 10 -6 0
-13 -4 -16 -10z"/>
<path d="M2182 3565 c0 -16 2 -22 5 -12 2 9 2 23 0 30 -3 6 -5 -1 -5 -18z"/>
<path d="M1280 3041 c-15 -28 -12 -44 6 -37 8 3 12 2 9 -4 -3 -5 -2 -17 3 -27
9 -14 10 -14 17 6 8 25 15 24 104 -15 78 -35 161 -54 222 -52 40 1 45 2 19 5
-69 8 -47 18 40 18 48 0 86 -4 83 -9 -13 -21 217 31 241 55 15 14 44 11 54 -6
13 -25 46 17 38 48 -10 41 -50 43 -120 7 l-61 -32 35 31 c34 30 34 31 7 21
-16 -6 -37 -14 -47 -20 -13 -7 -20 -6 -22 1 -2 7 -29 3 -78 -12 -96 -30 -193
-30 -275 0 -35 12 -61 17 -63 11 -2 -6 -15 -4 -32 5 -41 21 -56 18 -29 -5 21
-18 16 -17 -28 5 -63 30 -108 33 -123 6z m817 -33 c-3 -8 -6 -5 -6 6 -1 11 2
17 5 13 3 -3 4 -12 1 -19z m-437 -31 c36 -2 89 -1 117 3 59 7 91 -3 46 -15
-76 -20 -299 -7 -263 15 7 5 18 6 24 4 6 -2 40 -5 76 -7z"/>
<path d="M2192 3030 c0 -19 2 -27 5 -17 2 9 2 25 0 35 -3 9 -5 1 -5 -18z"/>
<path d="M2488 2903 c7 -3 16 -2 19 1 4 3 -2 6 -13 5 -11 0 -14 -3 -6 -6z"/>
</g>
</svg>
