<?xml version="1.0" standalone="no"?>
<!DOCTYPE svg PUBLIC "-//W3C//DTD SVG 20010904//EN"
 "http://www.w3.org/TR/2001/REC-SVG-20010904/DTD/svg10.dtd">
<svg version="1.0" xmlns="http://www.w3.org/2000/svg"
 width="591.000000pt" height="1280.000000pt" viewBox="0 0 591.000000 1280.000000"
 preserveAspectRatio="xMidYMid meet">

<g transform="translate(0.000000,1280.000000) scale(0.100000,-0.100000)"
fill="#000000" stroke="none">
<path d="M2570 8393 c-59 -45 -87 -62 -170 -103 -19 -9 -71 -37 -115 -61 -91
-51 -398 -194 -493 -230 -35 -13 -56 -25 -48 -27 20 -4 21 -32 1 -32 -8 0 -15
6 -15 13 0 9 -3 8 -9 -2 -5 -8 -16 -11 -29 -7 -11 4 -23 3 -26 -2 -3 -5 -29
-8 -58 -7 -52 2 -53 2 -22 -11 25 -10 57 -11 160 -2 141 11 202 13 252 6 35
-4 39 0 20 21 -11 11 -10 12 0 6 17 -9 72 -85 72 -98 0 -6 -10 -1 -23 11 -13
12 -29 22 -35 22 -16 0 19 -69 35 -70 17 0 41 -49 49 -99 12 -73 29 -42 28 50
0 88 -19 145 -67 197 -20 21 -20 22 -1 22 16 0 17 2 4 10 -12 8 -12 10 -1 10
7 0 57 20 109 45 53 25 99 42 104 37 4 -4 -5 -39 -21 -77 -34 -81 -45 -134
-32 -154 27 -41 91 48 152 209 45 120 49 142 12 82 -39 -65 -37 -45 3 33 l36
70 -31 -29 c-17 -17 -31 -35 -31 -41 0 -6 -19 -29 -42 -50 -30 -28 -35 -31
-18 -10 14 16 28 31 33 33 4 2 5 8 2 13 -7 11 84 101 95 94 5 -3 21 10 36 30
14 19 31 35 36 35 5 0 33 25 63 55 29 30 52 55 50 55 -1 0 -31 -21 -65 -47z
m-305 -243 c-3 -5 -12 -10 -18 -10 -7 0 -6 4 3 10 19 12 23 12 15 0z m-279
-129 c-3 -4 -19 -14 -36 -21 -23 -9 -28 -15 -18 -21 9 -6 6 -9 -9 -9 -13 0
-23 4 -23 8 0 5 -7 9 -15 9 -18 0 -20 -17 -2 -18 16 -2 -62 -18 -90 -18 -14
-1 -23 5 -23 14 0 8 7 15 15 15 8 0 15 -4 15 -10 0 -5 5 -10 11 -10 5 0 7 5 3
12 -5 8 0 9 14 6 12 -4 22 -2 22 3 0 4 19 13 43 19 34 9 64 18 95 29 2 1 1 -3
-2 -8z m57 -28 c-7 -2 -19 -2 -25 0 -7 3 -2 5 12 5 14 0 19 -2 13 -5z"/>
<path d="M3285 8420 c3 -5 8 -10 11 -10 2 0 4 5 4 10 0 6 -5 10 -11 10 -5 0
-7 -4 -4 -10z"/>
<path d="M3349 8368 c29 -42 83 -98 66 -68 -5 9 2 7 16 -6 13 -11 43 -33 67
-48 23 -16 42 -33 42 -38 0 -5 5 -6 10 -3 6 4 10 3 9 -2 -3 -12 12 -45 30 -68
8 -11 -8 2 -37 30 -57 54 -62 53 -32 -5 31 -60 17 -48 -29 26 -49 78 -65 80
-23 3 16 -30 44 -93 62 -141 18 -49 37 -88 42 -88 4 0 8 -6 8 -14 0 -22 50
-76 70 -76 10 0 20 10 23 22 6 21 -22 117 -49 170 -9 18 -11 28 -4 28 6 0 9 3
7 8 -3 4 38 -14 91 -40 54 -26 106 -48 117 -49 17 -1 17 -2 3 -6 -10 -2 -18
-8 -18 -13 0 -5 18 -3 40 5 24 8 42 10 45 4 4 -5 -5 -9 -19 -9 -14 0 -35 -9
-47 -21 -47 -47 -90 -185 -75 -244 9 -37 24 -31 36 16 6 23 21 51 33 64 12 12
32 36 45 53 21 30 22 32 4 32 -11 0 -25 -7 -32 -15 -23 -28 -23 -7 0 30 13 20
25 33 29 28 7 -11 47 -9 74 2 10 4 57 2 105 -4 119 -16 263 -19 286 -5 15 9 8
11 -38 9 -31 -1 -59 2 -62 7 -4 5 -13 7 -22 3 -8 -3 -19 0 -24 7 -8 10 -11 10
-15 1 -7 -18 -33 -16 -33 2 0 8 8 15 18 15 22 0 -45 31 -168 77 -191 71 -435
197 -595 307 -33 23 -66 45 -73 50 -7 4 1 -12 17 -36z m316 -218 c3 -6 -1 -7
-9 -4 -18 7 -21 14 -7 14 6 0 13 -4 16 -10z m-111 -56 c3 -8 2 -12 -4 -9 -6 3
-10 10 -10 16 0 14 7 11 14 -7z m486 -101 c2 -2 -2 -8 -10 -13 -9 -6 -10 -10
-3 -10 6 0 15 5 18 10 3 6 11 10 16 10 6 0 8 -4 5 -9 -4 -5 11 -7 34 -4 33 5
40 3 40 -11 0 -10 -8 -16 -22 -16 -35 1 -156 27 -133 29 14 1 7 8 -22 22 -24
11 -43 21 -43 23 0 4 114 -25 120 -31z"/>
<path d="M2258 8076 c-10 -7 -15 -16 -11 -19 11 -12 22 -8 33 13 12 23 3 25
-22 6z"/>
<path d="M3633 8079 c3 -8 20 -47 37 -87 38 -90 39 -153 2 -162 l-24 -5 21
-19 c12 -11 21 -31 21 -47 0 -25 -5 -30 -40 -39 -23 -6 -50 -9 -60 -6 -11 4
-29 9 -40 12 -16 4 -13 -1 11 -25 32 -32 37 -33 127 -6 20 7 22 4 22 -28 0
-19 3 -42 6 -51 11 -28 -11 -17 -30 15 -10 17 -20 28 -22 26 -3 -3 4 -20 15
-38 29 -47 43 -81 36 -87 -6 -7 -29 22 -54 68 -11 19 -29 41 -40 47 -13 9 -7
-5 20 -40 69 -90 136 -239 174 -387 62 -244 70 -312 70 -635 -1 -257 -3 -305
-23 -417 -32 -180 -57 -250 -148 -413 -22 -38 -45 -83 -52 -98 -31 -71 46 31
106 138 29 53 32 56 26 25 -17 -94 -114 -275 -199 -375 l-43 -51 62 4 c88 5
101 -7 101 -95 0 -61 -4 -74 -40 -133 -21 -36 -49 -85 -62 -110 -12 -25 -23
-37 -23 -27 0 9 -8 17 -17 17 -21 0 -140 -220 -120 -220 7 -1 -3 -14 -22 -30
-29 -25 -50 -60 -35 -60 12 0 84 84 76 89 -5 3 9 22 30 42 21 20 41 33 43 28
3 -4 -10 -20 -29 -35 -19 -16 -33 -32 -30 -36 5 -8 85 28 95 44 3 5 9 9 13 9
17 -3 56 12 56 22 0 6 3 8 6 4 3 -3 29 3 58 13 28 10 74 22 101 26 45 6 237
66 373 116 l53 20 -25 19 c-19 15 -41 19 -113 20 -48 0 -113 4 -143 8 -58 9
-85 -1 -76 -26 4 -10 1 -11 -14 -3 -18 10 -50 4 -50 -9 0 -4 5 -12 12 -19 9
-9 8 -12 -5 -12 -17 0 -40 30 -52 68 -5 19 -3 22 19 22 14 0 26 4 26 9 0 4 11
6 25 3 26 -5 31 3 16 27 -6 10 -13 10 -29 2 -16 -8 -25 -6 -45 9 -35 28 -51
111 -43 215 10 118 20 145 83 221 137 167 237 370 288 582 19 78 38 109 88
143 30 20 30 20 -5 -12 -46 -43 -53 -58 -77 -161 -50 -212 -137 -393 -263
-546 -36 -44 -66 -91 -74 -119 -14 -47 -19 -168 -8 -197 10 -26 24 -18 24 12
0 61 23 145 41 149 10 3 20 11 23 19 4 11 -1 13 -19 8 -14 -3 -25 -4 -25 -1 0
3 32 45 70 93 39 49 92 124 117 167 87 146 53 54 -41 -112 -48 -85 -19 -59 49
44 65 98 116 204 122 254 2 20 14 84 27 141 19 92 25 105 44 108 14 2 22 10
22 24 0 15 -5 19 -20 15 -29 -7 -25 15 7 44 20 17 23 18 10 3 -24 -29 -22 -32
23 -24 30 5 56 22 101 66 95 91 99 94 99 89 0 -7 165 69 168 77 2 5 8 6 13 2
5 -3 9 0 9 5 0 6 -9 11 -20 11 -11 0 -17 5 -15 13 3 7 -12 19 -36 29 -22 10
-38 21 -35 26 3 5 -53 40 -124 76 -118 61 -132 66 -150 53 -11 -8 -17 -17 -13
-21 4 -3 -8 -3 -25 0 -27 6 -32 4 -32 -13 0 -10 5 -24 12 -31 7 -7 9 -12 6
-12 -4 0 -14 7 -22 16 -21 20 -21 64 -1 64 8 0 15 4 15 8 0 5 10 8 23 8 27 -1
29 22 4 38 -13 8 -20 8 -26 -2 -6 -10 -12 -9 -30 5 -17 14 -25 39 -37 113 -22
140 -61 305 -84 358 -18 43 -18 45 -2 23 l19 -24 6 23 c11 41 -96 218 -114
189 -5 -9 3 -33 23 -69 19 -33 25 -49 15 -41 -9 7 -17 12 -17 10 0 -2 15 -47
34 -99 57 -161 53 -177 -12 -53 -67 127 -134 224 -204 299 -31 33 -48 60 -48
76 0 25 1 25 58 21 53 -4 56 -3 41 12 -13 14 -21 15 -38 6 -11 -7 -21 -8 -21
-4 0 5 -10 13 -22 18 -36 16 -41 108 -13 218 5 20 4 27 -5 25 -10 -2 -13 11
-11 47 3 70 -19 115 -70 144 -26 15 -40 18 -36 10z m344 -1331 c-3 -7 -5 -2
-5 12 0 14 2 19 5 13 2 -7 2 -19 0 -25z m0 -100 c-2 -13 -4 -3 -4 22 0 25 2
35 4 23 2 -13 2 -33 0 -45z m0 -120 c-2 -13 -4 -3 -4 22 0 25 2 35 4 23 2 -13
2 -33 0 -45z m536 -15 c-7 -2 -19 -2 -25 0 -7 3 -2 5 12 5 14 0 19 -2 13 -5z
m-536 -100 c-2 -16 -4 -3 -4 27 0 30 2 43 4 28 2 -16 2 -40 0 -55z m333 12 c0
-2 -10 -9 -22 -15 -22 -11 -22 -10 -4 4 21 17 26 19 26 11z m-333 -67 c-3 -8
-6 -5 -6 6 -1 11 2 17 5 13 3 -3 4 -12 1 -19z m213 -1268 c0 -5 -7 -7 -15 -4
-8 4 -15 8 -15 10 0 2 7 4 15 4 8 0 15 -4 15 -10z m-43 -6 c-3 -3 -12 -4 -19
-1 -8 3 -5 6 6 6 11 1 17 -2 13 -5z m-39 -10 c-11 -10 -117 -14 -123 -4 -4 6
18 10 61 10 37 0 65 -3 62 -6z m-165 -21 c-7 -2 -19 -2 -25 0 -7 3 -2 5 12 5
14 0 19 -2 13 -5z m-133 -20 c-8 -4 -51 -21 -95 -40 -44 -19 -75 -30 -70 -24
14 14 147 70 165 70 13 -1 13 -1 0 -6z"/>
<path d="M2179 8033 c-1 -5 -1 -12 0 -17 1 -6 0 -20 -4 -34 -5 -20 -10 -23
-35 -17 -18 4 -30 2 -30 -4 0 -12 20 -25 40 -26 8 0 16 -9 18 -19 3 -14 0 -17
-11 -13 -14 5 -14 2 -1 -36 20 -55 29 -204 15 -239 -7 -18 -18 -28 -31 -28
-11 0 -20 -7 -20 -15 0 -9 8 -14 22 -12 40 4 30 -27 -35 -109 -78 -97 -104
-138 -179 -279 -67 -125 -69 -106 -7 70 36 103 37 108 14 80 -20 -23 -17 -16
10 33 19 35 35 73 35 85 0 20 0 20 -23 -1 -42 -40 -107 -164 -100 -191 l6 -24
24 29 25 29 -26 -53 c-17 -33 -38 -112 -58 -215 -42 -221 -46 -237 -63 -237
-8 0 -15 -5 -15 -10 0 -6 -10 -4 -22 4 -21 14 -24 13 -34 -9 -10 -21 -9 -25 7
-30 10 -4 23 -3 29 0 5 3 10 1 10 -4 0 -6 7 -11 16 -11 29 0 12 -52 -25 -77
-19 -13 -39 -23 -45 -23 -6 1 3 8 19 17 50 27 62 63 21 63 -35 0 -56 10 -56
26 0 12 -8 11 -37 -5 -32 -16 -214 -92 -278 -116 -19 -7 -19 -7 4 -16 37 -14
15 -28 -86 -54 -48 -13 -78 -24 -65 -24 34 -1 78 -27 121 -70 55 -55 401 -230
401 -203 0 3 -8 15 -17 26 -13 15 -10 14 10 -3 30 -27 36 -53 11 -49 -27 5
-28 -21 -2 -31 21 -8 28 -24 51 -128 15 -65 27 -127 27 -137 0 -37 174 -336
195 -336 3 0 -25 56 -61 126 -37 69 -65 127 -62 129 2 2 23 -29 47 -69 23 -40
70 -109 102 -152 59 -78 63 -102 13 -69 l-26 17 18 -31 c10 -17 24 -31 31 -31
20 0 30 -29 43 -118 7 -45 16 -80 20 -77 27 17 16 206 -16 266 -8 17 -43 67
-76 112 -95 129 -160 274 -229 516 -21 75 -34 94 -109 154 l-35 29 40 -28 c84
-57 93 -70 136 -208 62 -198 173 -416 265 -518 42 -47 54 -89 61 -214 8 -142
-1 -188 -43 -230 -41 -41 -42 -48 -9 -42 21 4 25 1 25 -17 0 -28 -36 -75 -57
-75 -13 0 -13 3 -2 16 10 13 10 17 -1 24 -8 5 -21 5 -31 -1 -24 -12 -38 -11
-19 2 11 8 12 12 3 16 -7 2 -13 11 -13 19 0 12 -4 13 -21 3 -12 -6 -81 -13
-153 -16 -96 -4 -133 -9 -139 -19 -11 -19 -41 -18 -33 1 3 9 0 15 -10 15 -11
0 -14 -5 -10 -16 5 -12 2 -15 -10 -10 -8 3 -19 6 -22 6 -4 0 0 5 8 10 12 8 11
10 -7 10 -14 0 -23 -6 -23 -15 0 -8 7 -15 15 -15 24 0 286 -89 325 -111 49
-26 344 -148 405 -166 28 -9 62 -17 78 -18 15 -1 30 -4 35 -5 4 -1 10 -2 14
-1 4 0 15 -13 25 -29 9 -17 23 -30 30 -30 29 0 7 34 -45 69 -18 12 -30 27 -27
31 3 5 -16 56 -43 113 -35 75 -55 106 -71 110 -23 6 -26 -4 -11 -34 6 -10 9
-19 6 -19 -3 0 -35 57 -72 127 -63 119 -68 131 -68 191 0 84 13 95 110 90 63
-3 69 -2 53 12 -29 26 -110 142 -141 205 -66 130 -111 282 -50 169 38 -70 111
-178 118 -172 2 2 -17 42 -41 88 -25 47 -61 115 -80 152 -116 223 -157 750
-89 1158 48 284 122 469 252 627 43 52 49 63 31 57 -41 -15 -122 -7 -136 12
-16 22 -8 54 21 76 l21 18 -27 0 c-27 0 -28 2 -28 48 0 28 11 75 25 112 14 35
25 65 25 66 0 1 -11 -3 -25 -9 -14 -7 -25 -15 -25 -19 0 -5 -5 -8 -11 -8 -6 0
-9 9 -6 20 3 11 1 20 -4 20 -5 0 -10 -3 -10 -7z m-885 -1513 c-10 -4 -23 -5
-28 -2 -5 3 -1 9 10 12 10 4 23 5 28 2 5 -3 1 -9 -10 -12z m129 -7 c-7 -2 -19
-2 -25 0 -7 3 -2 5 12 5 14 0 19 -2 13 -5z m207 -99 c0 -2 -9 0 -20 6 -11 6
-20 13 -20 16 0 2 9 0 20 -6 11 -6 20 -13 20 -16z m117 -1320 c-3 -3 -12 -4
-19 -1 -8 3 -5 6 6 6 11 1 17 -2 13 -5z m40 -10 c-3 -3 -12 -4 -19 -1 -8 3 -5
6 6 6 11 1 17 -2 13 -5z m140 -15 c-10 -6 -24 -8 -32 -5 -8 3 -15 2 -17 -2 -2
-4 -19 -2 -38 5 -34 11 -33 12 35 12 54 0 66 -2 52 -10z m66 -16 c-7 -2 -19
-2 -25 0 -7 3 -2 5 12 5 14 0 19 -2 13 -5z m210 -50 c31 -14 56 -28 54 -30 -4
-4 -148 55 -157 64 -9 9 43 -8 103 -34z m241 -175 c-6 -10 -63 50 -64 66 0 6
16 -5 35 -24 19 -18 32 -37 29 -42z"/>
<path d="M2780 7983 c-95 -15 -184 -41 -288 -83 -66 -28 -132 -50 -147 -50
-37 0 -72 -19 -54 -30 11 -7 10 -12 -4 -28 -38 -42 -12 -43 32 -1 30 28 34 29
45 13 9 -11 18 -14 27 -9 11 7 12 6 2 -6 -9 -12 -10 -18 -1 -27 8 -8 4 -14
-16 -22 -40 -15 -77 -12 -98 7 -22 19 -36 10 -18 -12 24 -29 95 -19 176 26 41
22 74 45 74 50 0 6 33 26 74 45 41 18 77 39 79 46 4 10 6 10 6 -1 1 -10 4 -11
14 -2 8 6 42 18 78 28 130 35 473 15 501 -30 6 -9 8 -9 8 1 0 6 5 12 10 12 6
0 10 -6 10 -13 0 -7 30 -26 67 -42 37 -16 61 -31 54 -33 -17 -6 128 -81 154
-81 12 1 8 4 -12 10 -50 14 -54 41 -12 68 19 11 25 9 49 -14 17 -16 33 -24 40
-20 9 6 8 10 -4 17 -22 13 -21 42 2 34 10 -4 7 1 -8 13 -16 13 -30 17 -40 11
-10 -5 -31 -1 -59 12 -40 18 -82 31 -260 78 -117 31 -379 49 -481 33z m-255
-133 c-3 -5 -12 -10 -18 -10 -7 0 -6 4 3 10 19 12 23 12 15 0z m-70 -30 c-3
-5 -12 -10 -18 -10 -7 0 -6 4 3 10 19 12 23 12 15 0z"/>
<path d="M1486 7922 c-3 -5 1 -9 9 -9 8 0 15 4 15 9 0 4 -4 8 -9 8 -6 0 -12
-4 -15 -8z"/>
<path d="M4395 7920 c3 -6 20 -10 37 -10 38 0 34 5 -10 13 -21 4 -31 3 -27 -3z"/>
<path d="M1448 7913 c7 -3 16 -2 19 1 4 3 -2 6 -13 5 -11 0 -14 -3 -6 -6z"/>
<path d="M2869 7905 c-3 -2 -27 -6 -54 -9 -28 -3 -51 -6 -52 -7 -2 -1 -7 -3
-13 -4 -5 -1 -13 -4 -17 -5 -5 -1 -11 -2 -15 -1 -4 0 -23 -6 -42 -14 -20 -9
-36 -13 -36 -10 0 3 -11 -2 -25 -11 -13 -8 -29 -13 -35 -9 -5 3 -10 2 -10 -3
0 -5 -26 -26 -57 -47 -232 -154 -372 -433 -439 -875 -25 -164 -24 -433 2 -560
l19 -95 6 285 c7 289 12 334 60 537 26 109 116 296 211 436 28 41 34 56 21 48
-25 -13 -82 -83 -117 -143 -41 -71 -41 -58 0 24 35 70 84 141 141 205 34 39
124 113 137 113 5 0 -9 -13 -30 -29 -40 -29 -100 -91 -74 -76 8 5 30 19 49 32
19 13 44 23 57 23 12 0 26 5 30 11 11 18 131 69 212 90 42 11 109 19 151 19
96 0 250 -39 351 -88 41 -20 79 -35 83 -34 12 3 69 -28 94 -51 13 -11 25 -18
28 -15 5 5 -54 62 -111 106 -16 13 -9 10 16 -6 102 -67 240 -240 264 -332 6
-22 5 -21 -10 5 -28 49 -104 145 -116 145 -6 0 -4 -10 5 -22 37 -53 84 -136
101 -178 10 -25 26 -54 36 -65 26 -29 46 -73 60 -135 7 -30 19 -77 27 -105 41
-144 54 -251 57 -475 3 -124 2 -207 -1 -185 -5 36 -7 32 -24 -55 -21 -112 -24
-159 -9 -144 6 6 13 40 17 77 6 63 23 85 23 30 0 -50 12 -14 26 79 18 121 18
341 -1 498 -18 151 -89 424 -139 534 -49 106 -133 232 -194 286 -63 59 -106
94 -118 99 -5 2 -15 6 -21 8 -7 3 -11 9 -8 13 3 5 -4 6 -15 3 -12 -3 -20 0
-20 6 0 7 -4 10 -9 7 -5 -4 -11 -1 -13 4 -2 6 -15 13 -30 15 -15 3 -40 10 -55
16 -70 27 -356 53 -374 34z m201 -38 c86 -15 53 -22 -104 -22 -150 0 -169 2
-143 13 17 7 36 11 41 9 6 -2 20 0 31 4 19 8 117 6 175 -4z m205 -47 c3 -6 -1
-7 -9 -4 -18 7 -21 14 -7 14 6 0 13 -4 16 -10z m-645 -15 c0 -2 -10 -9 -22
-15 -22 -11 -22 -10 -4 4 21 17 26 19 26 11z"/>
<path d="M3635 7769 c-4 -6 -17 -14 -29 -19 -20 -8 -20 -9 5 -9 29 -1 57 23
40 33 -5 4 -13 1 -16 -5z"/>
<path d="M2080 7723 c0 -31 15 -61 25 -51 9 9 -4 66 -16 73 -5 4 -9 -6 -9 -22z"/>
<path d="M2067 7593 c-12 -11 -7 -33 7 -33 7 0 19 6 25 14 9 11 8 15 -5 20
-19 7 -19 7 -27 -1z"/>
<path d="M1018 6543 c-66 -7 -41 -20 35 -17 131 4 135 4 112 14 -20 9 -80 10
-147 3z"/>
<path d="M4790 6540 c-49 -5 -51 -6 -20 -10 19 -3 58 -3 85 0 41 4 45 6 20 10
-16 3 -55 3 -85 0z"/>
<path d="M4628 6533 c7 -3 16 -2 19 1 4 3 -2 6 -13 5 -11 0 -14 -3 -6 -6z"/>
<path d="M4656 6523 c-4 -10 1 -12 22 -7 36 9 37 11 8 16 -16 3 -27 0 -30 -9z"/>
<path d="M2115 6318 c6 -102 11 -128 27 -128 10 0 4 54 -18 160 l-14 65 5 -97z"/>
<path d="M2261 5701 c16 -42 69 -119 86 -125 27 -11 28 2 3 47 -38 68 -58 94
-79 100 -18 4 -19 2 -10 -22z"/>
<path d="M3658 5721 c-14 -5 -98 -131 -98 -147 0 -2 6 -4 14 -4 20 0 65 56 88
109 21 49 20 51 -4 42z"/>
<path d="M2071 5444 c0 -11 3 -14 6 -6 3 7 2 16 -1 19 -3 4 -6 -2 -5 -13z"/>
<path d="M2080 5342 c0 -40 4 -61 10 -57 13 8 13 85 0 105 -7 11 -10 -4 -10
-48z"/>
<path d="M2240 5370 c-21 -21 -27 -74 -10 -100 8 -13 10 -13 10 2 0 23 19 33
33 18 9 -9 9 -11 -2 -8 -23 5 -24 -26 -2 -53 l20 -24 7 34 c7 31 9 33 41 28
18 -3 70 -24 116 -45 167 -80 313 -109 487 -96 l105 8 -121 8 c-66 4 -131 12
-145 17 l-24 10 25 1 c14 0 36 3 49 7 14 3 22 2 19 -3 -7 -11 234 -13 242 -2
3 4 23 5 45 1 32 -5 35 -8 20 -14 -11 -4 -38 -8 -59 -8 -29 -1 -37 -4 -29 -12
28 -28 363 50 487 113 38 19 40 20 53 2 7 -10 13 -27 13 -38 0 -17 5 -15 35
14 27 27 34 43 35 73 0 81 -80 102 -184 47 -31 -17 -56 -28 -56 -25 0 2 -16
-7 -36 -20 -35 -24 -54 -31 -54 -20 0 2 17 14 38 25 45 24 98 67 91 74 -3 3
-39 -12 -81 -32 -42 -20 -72 -32 -66 -25 8 10 6 13 -5 13 -8 0 -17 5 -19 11
-3 8 -27 3 -75 -14 -195 -71 -390 -75 -545 -12 -41 17 -69 22 -90 18 -29 -6
-30 -7 -12 -21 22 -17 20 -16 -69 26 -38 18 -71 32 -74 32 -14 0 36 -44 75
-67 82 -48 34 -34 -73 21 -121 63 -178 73 -215 36z m50 -19 c-17 -5 -24 -13
-22 -25 2 -11 -1 -15 -7 -11 -28 17 -7 44 34 43 16 0 14 -2 -5 -7z m20 -21 c0
-5 -4 -10 -10 -10 -5 0 -10 5 -10 10 0 6 5 10 10 10 6 0 10 -4 10 -10z m61 -7
c13 -17 13 -17 -6 -3 -11 8 -22 16 -24 17 -2 2 0 3 6 3 6 0 17 -8 24 -17z
m1218 14 c-2 -1 -13 -9 -24 -17 -19 -14 -19 -14 -6 3 7 9 18 17 24 17 6 0 8
-1 6 -3z m71 -11 c0 -8 -4 -17 -8 -20 -4 -2 -8 4 -8 15 0 10 4 19 8 19 4 0 8
-6 8 -14z m-35 -6 c-3 -5 -10 -10 -16 -10 -5 0 -9 5 -9 10 0 6 7 10 16 10 8 0
12 -4 9 -10z m42 -47 c3 -7 -4 -9 -16 -6 -12 3 -18 9 -15 15 7 11 26 6 31 -9z
m-913 -25 c-6 -10 -5 -10 8 -1 8 7 18 10 21 6 10 -9 46 -12 185 -11 182 0 211
2 204 12 -3 5 2 6 12 3 10 -4 24 -7 32 -7 8 0 14 -4 14 -10 0 -5 -7 -7 -15 -4
-8 4 -15 1 -15 -6 0 -6 -4 -9 -9 -6 -5 4 -22 1 -38 -5 -24 -9 -132 -21 -183
-21 -58 1 -113 6 -160 14 -71 13 -84 16 -90 18 -3 1 -8 2 -12 1 -5 0 -8 3 -8
8 0 8 12 13 53 20 5 0 5 -5 1 -11z m-169 -26 c-3 -3 -11 0 -18 7 -9 10 -8 11
6 5 10 -3 15 -9 12 -12z m780 8 c-3 -5 -12 -10 -18 -10 -7 0 -6 4 3 10 19 12
23 12 15 0z m-630 -50 c3 -6 -4 -10 -17 -10 -18 0 -20 2 -8 10 19 12 18 12 25
0z m495 -6 c0 -2 -9 -4 -21 -4 -11 0 -18 4 -14 10 5 8 35 3 35 -6z"/>
<path d="M3817 5370 c-10 -37 -8 -78 4 -85 16 -11 18 -4 10 55 -5 45 -8 50
-14 30z"/>
<path d="M2056 5192 c-11 -10 -6 -30 9 -36 8 -3 19 3 25 13 7 15 6 20 -10 24
-10 3 -21 2 -24 -1z"/>
<path d="M1530 5120 c-11 -7 -7 -10 18 -10 17 0 32 5 32 10 0 13 -30 13 -50 0z"/>
<path d="M4306 5123 c-46 -7 -13 -19 40 -15 31 3 42 7 33 13 -14 9 -23 9 -73
2z"/>
<path d="M4245 5110 c-3 -5 1 -10 9 -10 9 0 16 5 16 10 0 6 -4 10 -9 10 -6 0
-13 -4 -16 -10z"/>
<path d="M2560 4696 c0 -2 8 -10 18 -17 15 -13 16 -12 3 4 -13 16 -21 21 -21
13z"/>
</g>
</svg>
